<svg width="54" height="54" viewBox="0 0 54 54" fill="none" xmlns="http://www.w3.org/2000/svg">
<path d="M47.2201 1.16325C48.7711 -0.38775 51.2858 -0.38775 52.8368 1.16325C54.3877 2.71425 54.3877 5.22892 52.8368 6.77992L6.77995 52.8368C5.22895 54.3878 2.71428 54.3878 1.16329 52.8368C-0.387712 51.2858 -0.387712 48.7711 1.16329 47.2201L47.2201 1.16325Z" fill="black"/>
<path d="M1.16325 6.78008C-0.387749 5.22908 -0.387752 2.7144 1.16325 1.16339C2.71425 -0.38761 5.22893 -0.387612 6.77993 1.16339L52.8365 47.22C54.3875 48.771 54.3875 51.2857 52.8365 52.8367C51.2855 54.3877 48.7709 54.3877 47.2199 52.8367L1.16325 6.78008Z" fill="black"/>
</svg>
